<?xml version="1.0" encoding="UTF-8"?><svg xmlns="http://www.w3.org/2000/svg" width="100%" height="100%" viewBox="0 0 199.3 67.32"><title>Asset 2</title><path d="M109.36,33.85l1-2.31L105.9,22.2l-2.59,7L92.14,27.06l-.21-7.13-7.84,7.35.25,2.18C39.15-4.17,0,.18,0,.18,25,8,29.21,33.37,29.21,33.37c9.53-10.48,21.08,6.46,21.08,6.46C58.05,29.12,69,43.15,69,43.15c10.56-2.61,16.73,11.62,18.92,18l.58,5.07,6.94,1.12,2.41-5.8c4-5.29,13.36-15.74,22.34-10.06,0,0,14.85-9.83,18.83,2.78,0,0,16.32-12.41,22,.55,0,0,12-22.72,38.22-22.24C199.3,32.55,163.24,15.89,109.36,33.85Z" fill="#311634" data-color-group="0"/></svg>