<?xml version="1.0" encoding="UTF-8"?><svg xmlns="http://www.w3.org/2000/svg" width="100%" height="100%" viewBox="0 0 489 949.26"><title>Asset 2</title><path d="M0,166.37v2.86c2.87,13.29,5,21.94,0,30.4V208a25.55,25.55,0,0,1,1.89-4.14C8.36,193,5.18,180.16,0,166.37Z" fill="#311634" data-color-group="0"/><path d="M7.28,0c-.12.65-.23,1.3-.34,1.94C5.3,11.14,3.38,19.83,1.21,28.09.8,26.78.39,25.43,0,24.05v5.28c.17.56.33,1.1.49,1.6-.16.59-.33,1.16-.49,1.75V55.82C6,37.18,11.16,17.91,14.13,0Z" fill="#311634" data-color-group="0"/><path d="M33.28,22.11Q39.66,11.66,46.46,0H40.05C27.14,22.62,13.58,44.52,0,63.49V72.7c8.16-11.57,19.21-27.86,31.64-48,38-10.16,106.69-8.45,106.69-8.45C92.46,11,48.24,18.93,33.28,22.11Z" fill="#311634" data-color-group="0"/><path d="M365.5,155.39c35-4.45,76.48-17.21,85.71-25.35s19.56-6.64,37.79-6.91c-15.3-2.08-29.46-3-40,4.46-10.12,7.21-50.5,18.19-85.6,22-32.72,3.53-61.9,25.23-70.5,29.25-7.94-1.16-15.81-2.47-23.44-4C219,164.89,158.41,188.36,144.84,190c1.6-7.46,3.3-14.95,5.14-22.4,3.51-2.38,8.25-5.37,13.69-8.91,9.9-4,20.86-9.62,29.54-17.94a259.06,259.06,0,0,1,25.86-21.53c7.34.06,11.64.17,11.64.17-3.48-.41-7-.75-10.41-1.07,12.56-9.07,24.1-15.74,29.78-17,8.6-1.86,14.44-8.59,19.76-16.84A93.78,93.78,0,0,0,293.7,68.13C297.92,64,302.43,60,307.06,56c7.41-.09,26.35,1.34,41.88-6.13,18.29-8.77,41.48-15.4,48.73-14.66,7.52.71,14.09-4.14,20.86-9.94-8.95,5.45-13.51,9.4-20.61,8s-31.39,4.53-49.86,12.93c-17.26,7.88-29,3.29-33.25,3.5,17.6-14,35.32-25,43.24-26.79C369.06,20.39,376,11,382.53,0h-.42c-9.27,11.31-14,18.58-24.79,19.88-4.82.56-13.49,4.61-23.6,10.68.51-1.72.5-6.27,5.52-11.15C344.94,13.87,350.4,6,350.72,3.24A5.17,5.17,0,0,1,352.47,0h-.67a6.28,6.28,0,0,0-1.89,3.08c-.64,2.67-6.22,10.11-12,15.53-4.94,4.6-6.79,11.51-7.75,14.15-6.64,4.16-13.73,9.06-20.71,14.37-.22-.15-.38-.38-.24-.89.36-1.26-2.31-5.69.9-12.7s5.3-16.21,4.56-18.85.84-4.37,3-7.8c-2.32,2.61-4.25,5.14-3.82,7.94s-1.92,11.44-5.3,18.42c-3,6.16-1.85,13.51-1.82,16l-1.5,1.17c-5.87,3.51-7.34,5.84-7.34,5.84l.17,0c-2.65,2.25-5.23,4.53-7.69,6.82a73.7,73.7,0,0,1-37,19.16,1.17,1.17,0,0,1,.3-1.09c1.16-1.49.12-8.59,8-16.3s15.54-18.71,16-22.51,3.43-5.37,8-8.87c-4.41,2.36-8.26,4.77-9.2,8.63s-8.66,14.12-16.75,21.66c-6.58,6.13-9.22,15.29-10.63,19.28-3.52.63-6.1,1.07-7.34,1.94.09-.16.19-.3.28-.46A534.28,534.28,0,0,1,302.57,0H291.08c-19.86,21.53-41.81,50-58.16,77.26a136.46,136.46,0,0,1-35,39.49c-7-.31-13.89-.49-20.68-.53,6.08-6.85,11.44-11.89,15.34-14.19,14-8.25,18.44-24.5,22-42.57-7.74,20.24-10.07,32.48-24.31,39-5,2.28-12.34,8.76-20.62,17.76-1.75,0-3.51,0-5.25.06,16.39-51.87,35.92-95.51,50-110.43A67.11,67.11,0,0,0,219.36,0H207c-10.83,9.27-24.7,32.92-38.39,63.72-2-4.95-10.35-15.69-7-35.37A177.2,177.2,0,0,0,163.92,0H160a195,195,0,0,1-3.21,28.7c-3.65,18.83,4.51,38.15,7,46.08-5.51,13.12-10.93,27.3-16,42q-6.88.32-13.5.75c-.55-3.67-1.33-6.57-2.23-7.83-2.19-3.06-.92-6,.29-11.35-1.83,4.37-3.18,8.45-1.32,11.87.72,1.29,1.3,4,1.66,7.42-4.7.32-9.3.68-13.77,1.09a51.43,51.43,0,0,1-3.12-9.37,167.86,167.86,0,0,0-5.93-19.49c5-2.91,7.93-4.53,7.93-4.53q-4.14,1.86-8.2,3.79C104,74.08,96.9,60.9,92.25,57.44c-5.28-3.91-6-9-6.6-16.63,11.57-6.94,19-11.13,19-11.13-6.55,3-12.94,6.08-19.19,9.31-.11-1.55-.23-3.16-.39-4.92-.16,1.8-.27,3.56-.35,5.29C50.25,57.28,20.64,78.6,0,95.1v3.64C28.2,76.3,63.16,54.31,84.69,41.38c-.1,7.08,1,13.34,5.75,17.74C94.62,63,100.87,76,105.84,91,63.53,111.46,26.66,136.94,0,157.65v4.44c11.75-9,24.21-17.89,36.48-26.23l0,.14c14.46-4.42,32.07-7.7,50.71-10.13a74.13,74.13,0,0,1-6,13.94c-6,10.13-20.62,16.73-30.38,25,1.19-4.39,3-9.36,4.87-15.38-3.12,6.08-5.89,12-7.41,17.66-.64.63-1.25,1.27-1.81,1.92-3,3.47-4.24,8.5-4.51,13.65C26.16,192.36,12,202.27,0,211.37v3.77c5.8-4.31,11.73-8.56,17.67-12.68-2.94,6.85-4.64,13.27-1.83,18.95,3.18,6.47,3.94,30.24.75,50.21s8.27,40.13,8.24,43.61a9.62,9.62,0,0,0,1.64,5.27c-.18.31-.34.65-.53,1-7.16,11.65-7.69,14.85-11.44,48.29C13.22,381.12,7.28,384.91,0,385V587a35.29,35.29,0,0,1,1.93,6.75c1.11,8,9.15,15,11.78,24.31-3.7,1-8.24.5-10.72-6.37a15.5,15.5,0,0,0-3-4.57v44.24a26,26,0,0,1,3.6,6,37.14,37.14,0,0,0,6.9,12c1.67,14.82,4.44,29.73,3.63,38.72-1.55,17.2,10,47.84,11.87,66.32s4.68,38.39.7,56.73,5.42,47.45-5.88,73.82c-6.1,14.23-10.32,31.07-12.92,43.61-.34.22-.6.44-.88.65h94.67c-.48-1.88-1.65-4.19-4.88-7.25.43-14.23.38-28.86-1.4-33.4C91.62,899,100.14,839,96.24,822c0,0,1.37-23.89-3.94-33.67-4.43-8.1-6-36.12-12.79-53.22a36.48,36.48,0,0,0,5.17-11.66c3.16-13.39,67.62-83.12,73.87-162.16,1.18-14.9,3-30.22,5.42-45.43,15.4-11.89,57.75-39.07,76.37-78.59,21.93-46.58,58.18-96.52,74.7-106.6,17.13-10.42,21.83-30.59,25.22-52.94-8.57,25.12-10.8,40.27-28.38,48.58s-57.32,58.77-80.34,104.89c-21.54,43.16-54.82,52.59-63.2,59.67,10.82-56,27.46-106.17,40.72-122.25,19.45-23.64,15.06-55.52,7.53-90C218,319.66,223.26,343,202,363.72c-9,8.76-19.68,30.57-29.57,58.77-2.23-4.3-10.62-13.43-9.18-31.1,1.59-20.11-1.68-44.66-6.08-50.62s-2-11.67.27-21.92c-3.49,8.39-6.07,16.22-2.29,22.88,3.67,6.41,5.86,30.15,3.76,50.22-1.76,16.94,7.17,33.72,10.1,40.63a635.5,635.5,0,0,0-16.64,61.81c-.71,0-1.47-.32-2.07-1.51-1.6-3.11-15.5-7.78-21.84-27s-19.06-40.92-25.51-45-6.42-10.14-8.32-20.43c0,9,.68,17.11,6.82,22,5.92,4.72,17.26,26.06,23.18,45.41,5.18,17,21.11,29.89,26,35-.34,1.65-.66,3.31-1,5C143.91,524,145.14,531,145.14,531l.4-.14c-1.35,8.7-2.49,17.34-3.36,25.82-5,48.86-25.92,78.48-41.91,97.13a3.07,3.07,0,0,1-1.37-2.66c-.36-4.82-15.8-17.44-13.54-45.43S83,543.47,76.9,535.15s-2.78-16.24.38-30.52c-4.87,11.67-8.44,22.61-3.18,31.86,5.09,8.92,8.14,42,5.22,70C77,629.22,88.47,651.79,93,662c-6.26,6.92-10.85,11.87-11.82,15.6-3.49,13.32-16.28,4.9-16.28,4.9-.45,5.7-.7,10.91-.8,15.71a37.44,37.44,0,0,0-3.5-5.65c-8.09-10.68-6.69-29.22-7.35-33.28,0,0,1.29-2.79.25-8.65S50.05,637,50.8,631.53s.34-26.62-6.72-40.33c0,0-2.46-4.21-1.45-12.34s-4.16-17-11.19-22.5-18.75-27.35-4-53.21S32.74,473.35,33,465a37.17,37.17,0,0,0-6-1.85c-1.53-.15,3.27,21.16-1.19,24.79s-12.91-.64-12-21.9c.41-9.9,4.14-20.48,8.17-30.83,1-1.5,2.14-3,3.33-4.42C33.79,420.44,38,410.62,39,400.9a40.37,40.37,0,0,0,2.78-6.4c4.82-14.78,82.83-88.57,97.66-176.52.49-2.88,1-5.79,1.56-8.7l.65,0s15.65-8,27-11.29c5.17,3.63,18,15,34.25,17.86,18.85,3.3,39.74,10.74,44.48,15.06,4.89,4.48,12.79,4.43,21.44,3.84-10-.79-15.86-.35-20-5.14s-25.4-13.24-44.13-16.92-23.6-14.24-26.68-15.27a2.32,2.32,0,0,1-1.29-.88H177c9.42.45,38.86-21.38,92-12,10.84,1.92,22.27,3.42,33.76,4.56,2.46,4.16,7.42,14,16.68,19.39C330.74,215.06,342.19,225,344,229c1.87,4.19,7,6,12.87,7.55-6.31-2.84-10.26-3.87-11.51-8.08s-12.68-14.89-23.82-21.71-11.18-15.18-12.88-16.6a1.76,1.76,0,0,1-.47-.57c15.62,1.38,31.17,2.06,45.32,2.06,4.44,3.38,12.67,9.7,22.78,11.45,13.54,2.38,28.54,7.71,31.92,10.82s9.18,3.18,15.4,2.75c-7.18-.54-11.38-.23-14.34-3.67s-18.21-9.5-31.65-12.15c-10-2-14.5-6.65-17.06-9.24,21.62-.35,39.11-2.35,47.06-5.86,18.12-8,32.19-1,58.63,6.93C445.4,182.54,425.56,174.6,406,181c-14.29,4.69-54.84,4.67-96.63-.11a5.76,5.76,0,0,1,2.41-1.13C317.63,178.26,330.48,159.85,365.5,155.39ZM233.06,98.19c5.79-2.21,20.19-5.76,35.09-12.89-6.25,7.58-10.54,12.45-18.65,13.35-5.41.58-16.46,6.18-28.65,14.13A169.88,169.88,0,0,0,233.06,98.19Zm-66.7,21.69c-.67.75-1.33,1.49-2,2.27,0-.55-.16-1.3-.3-2.19Zm7.94-.25c7.23-.2,14-.32,20.24-.4-14.82,10.48-28,15.27-34.83,19.14C164.73,131.42,169.68,125.07,174.3,119.63ZM133,121.53a90.94,90.94,0,0,1-.4,14.68c0,.09,0,.18,0,.27a49.68,49.68,0,0,1-11.86-14.06Q126.93,121.93,133,121.53ZM46,129.47c24.51-16.21,47.15-29.78,60.23-37.42a185.81,185.81,0,0,1,5.23,19.31,49.32,49.32,0,0,0,2.35,7.88c-7.92.77-15.42,1.65-22.4,2.58.28-1.18.46-2.14.54-2.76a35,35,0,0,1,2.74-8.63C92,112,90.31,116.55,88.4,122.21,69.67,124.77,54.9,127.59,46,129.47ZM28.43,303.94c-.05-3.47-10.35-12.77-7.59-32.77s.95-44.6-3-50.69c-3.48-5.37-1.78-10.4.6-18.56,7.93-5.49,15.84-10.75,23.38-15.61a76.47,76.47,0,0,0,2.65,17.34c6.4,19.48,1.47,49-5.51,68-4.43,12.11-5.6,24.2-7.7,34.41C30.2,306.33,28.46,306.34,28.43,303.94ZM42.5,343a12.81,12.81,0,0,1-4.22,6.29,55.66,55.66,0,0,1,3.79-12.81,154.11,154.11,0,0,0,9.42-27.12c2,7,4.21,12.88,5.59,17C49.49,333.69,44,338.92,42.5,343Zm79.38-131.27C111.43,266,85.45,297.81,66,317.62a3.32,3.32,0,0,1-1.25-3.05c.06-3.37-6-10.46-9.29-22.78a4,4,0,0,0,.88-.85c.75-1.07,2.08-5.74,1.49-8.22s-2.16-1.58-3.05-3c-.55-.89,1.84-11.17,4-22.51A19.3,19.3,0,0,0,61.57,254c4-5.62,43.35-26.33,64-59.74C124.26,200.12,123,206,121.88,211.75Zm13.06-54.19c-1.38,3.12-2.49,5.93-3.4,8.45a17.12,17.12,0,0,0-2.17,4.37h.22c-2.42,4-4.73,8-6.88,12a97.4,97.4,0,0,1-39.55,40.27,1.55,1.55,0,0,1-.1-1.52c.82-2.4-3.84-11.14,3-24.38S97.68,166.09,96.5,161s2-8.36,6.42-14.78c-4.67,4.87-8.59,9.59-8,15,.57,5.19-4.79,21.81-11.87,34.94-5.77,10.67-5,23.58-5,29.32-4.34,2.31-7.52,4-8.74,5.62-1.68,2.27-3.34,2.73-4.76,2.45a6.26,6.26,0,0,0-1.08-4.26c-1.8-3-4.23-9.69-6.13-16.36-.25-5.68-.71-10.89-1.36-15.39l.24-.23c2.41-2.19.64-3.7-1-4.54a31.14,31.14,0,0,0-3-9.24,19.74,19.74,0,0,1-1.44-2.87c23.46-14.82,41.41-24.88,41.41-24.88a432.4,432.4,0,0,0-42.31,22.1c-.06-.26-.1-.52-.15-.78C51.08,170.32,60.8,166.66,75.4,159S92.21,145.7,92.21,145.7c-2.78,5.24-25.87,14.89-25.42,13.29s5.38-4.76,12.85-12.51c5.17-5.35,8.82-14.56,10.74-21,8.2-1,16.56-1.89,24.93-2.61,5.53,11.95,14.46,21.55,19.26,27,.48,1.41,1,2.72,1.47,3.88C135.68,155,135.31,156.28,134.94,157.56Zm4.38-14.77c-.8,0-1.6-.45-2.15-1.82a8.71,8.71,0,0,0-2.37-2.63,22.61,22.61,0,0,1,0-2.45,82.29,82.29,0,0,0-.07-14.48q5.91-.37,11.69-.67C144,128,141.6,135.35,139.32,142.79Z" fill="#311634" data-color-group="0"/><path d="M49.7,187.79c.06-.12.08-.19.13-.31,0,.09.05.2.07.29Z" fill="#311634" data-color-group="0"/></svg>