<?xml version="1.0" encoding="UTF-8"?><svg xmlns="http://www.w3.org/2000/svg" width="100%" height="100%" viewBox="0 0 176.6 93.95"><title>Asset 1</title><path d="M176.6,1.72S122-15.7,105.57,60.34h0l-4.7-8.09.07,5.82-9.32,2.09-3.8-4.49,1,10.19C38.08,10.75,0,51.7,0,51.7c40.5-8.46,43.41,19.69,43.41,19.69C58,64.48,60.24,77.92,60.24,77.92c9.6-11.38,13.53,3.33,13.53,3.33,8.57-5.56,20.52.55,23.71,2.38L103.69,94l4.23-1.18L107.55,77c2.19-3.57,9.44-14,19.27-13.34,0,0-3.79-14.75,10.16-9.54,0,0-4.62-12.83,11.46-14C148.44,40.18,137.16,14.22,176.6,1.72Z" fill="#311634" data-color-group="0"/></svg>