<?xml version="1.0" encoding="UTF-8"?><svg xmlns="http://www.w3.org/2000/svg" width="100%" height="100%" viewBox="0 0 356.13 820.21"><title>Asset 3</title><path d="M356.13,820.21V385.13c-7.94-4.3-39.67-13.64-46.41-19-6.91-5.53-35.93-37.31-40.07-48.36s-20.73-30.4-19.35-42.83c.94-8.43,6.95-35.9,14.17-54.87,6-3.49,12.79-7.49,14.17-8.58,2.55-2,18-10.5,20.26-12.4s22.06-8.75,32-12.37c8.66-3.15,21.85-23.42,25.19-28.74v-.23c-3.57,4.65-18.34,23.38-27.08,26.85-10,4-25.29,7.92-31.65,10.45-4,1.59-18.65,9.89-29,15.84,2.24-4.49,4.53-7.79,6.75-9.18,8.85-5.53,38.07-38.51,55.75-54.28,5.28-1.1,17.28-3.65,18.9-4.46a46.2,46.2,0,0,1,6.31-1.67V134.9c-3.3.57-7.1,1.31-10.82,2.06,5.59-5.05,8.7-14.48,10.82-22.5V89.56c-1.42,10.89-4.49,20.91-10.49,26.45-18,16.58-76,76-88.43,85.67-4.26,3.31-10,13.13-15.45,25.09-2.3-8.05-6.06-20.82-8-25.09-2.88-6.42-2.88-27.23.32-35.23s19.21-28.81,25.61-38.41c.54-.81,1.09-1.68,1.65-2.57,6.89-3.7,17.37-9.45,19.69-11.43,3.53-3,10.67-11.59,16.2-16.33s25.93-2.4,25.93-2.4S301.83,90,296.51,95s-15.63,15-17.51,15.37c-1.59.36-8.93,4.53-12.43,6.17,1.37-2.49,2.73-5.08,4.05-7.68,3.14-6.16,6.06-12.4,8.29-17.61,4.81-11.21,0-60.82,0-60.82L258.11,0s16.28,28.33,18.36,47-.7,30.47-9,41.55-16.62,38.78-24.23,42.24c-5.86,2.67-15.41,9.84-20.45,15.53-6-4.36-16.08-11.51-18.76-12.62-3.9-1.61-13.56-3.48-19.69-6s-14.65-23-14.65-23,6.91,23,13.07,25.21,18.43,6.25,19.67,7.78,10.37,7.65,11.79,9.24a56.18,56.18,0,0,0,5.35,4.25c-2.26,5.86-10.25,22.6-9.57,26.68.33,2,6.89,23.51,13.54,45.1a5.19,5.19,0,0,0-.67-.29c-2.82-.9-16.05-10.45-18.67-11.12s-15.48-17.3-22.14-25.5-38.31,1.15-38.31,1.15,29.69-4.38,36.72,3.47,15.6,22.13,20.08,27.12c3.1,3.47,18.44,13.81,27.51,19.8,1.47,4.74,2.86,9.25,4.12,13.29-5.7,16.65-9.17,32.32-6.74,37.8,5.53,12.44,18,45.6,20.73,52.51s-19.35,12.43-33.16,8.29c-9.5-2.85-27.49-31.17-43.64-51.28-3.55-7-8.85-17.12-10.73-19.42-2.93-3.59-11.35-10.92-16-16.56s-1.82-26-1.82-26-5.75,21.23-.93,26.66,14.6,16,15,17.85a18.84,18.84,0,0,0,1.2,2.91,29,29,0,0,0-6.66-4.65,113.22,113.22,0,0,0-13.7-4.86c-3.48-6.86-9.63-18.79-11.69-21.31-2.94-3.59-11.35-10.92-16-16.56s-1.83-26-1.83-26-5.74,21.24-.92,26.66,14.59,16,15,17.85,6,12,6.48,14.08a25.48,25.48,0,0,0,1.26,3c-21-6.07-46.93-13.25-51.85-26-6.91-18-47-70.46-47-70.46s18.66,32.64,34,63.39c.81,1.63,1.63,3.16,2.44,4.63-7.71-5-17.4-11.07-20.28-12.26-5-2.06-17.15-4.95-25-8.19S0,197.64,0,197.64s10.84,24.63,18.7,27.53,23.46,8.32,25.15,10,13.61,9,15.53,10.8c1.32,1.24,9.5,6.58,14.48,9.8,11.31,14.16,21,15,23.81,16.69,2.37,1.42,20.13,8.39,33.53,14.3-10.86-1.54-23.21-3.18-26.83-3.18-6.85,0-22.51,2-33.27,2s-36.21-15.66-36.21-15.66,24.62,18.63,35.23,18.32,31.53-1.25,34.34-.31S124.75,291,127.88,292c1.87.56,11.43,2,18.75,3.11,6.08,6,33.85,32.56,36,38.89,2.19,6.59,10.24,29.28,13.17,31.48s52,13.9,54.17,13.9,48.5,18.82,52,22c15.37,13.91,43.92,90,41,108.34s-2.2,41.73-8,68.08-12.34,64-12.34,64S307,541.87,252.13,488.44s-70.28-57.83-82.72-60c-8.14-1.44-15.34-1.31-23-1.25-4.36-8.23-11.33-22-11.33-26.1,0-5.89-15.47-19.15-18.41-20.62s-19.88-14-22.83-16.18-15.9-12.79-20.85-16c-17.82-11.54-24.13-31.38-24.13-31.38,1.6,6.41,3.2,20.81,25.61,36.82s28.81,27.2,41.61,36.81c9.6,7.2,15.6,27,18,36.45l-.52,0c-13.18-.74-27.08,3.66-34.41-3.66s-14.64-17.57-20.49-21.23-20.5-8.79-20.5-8.79,20.5,10.25,30,31.48c.4.89.8,1.71,1.2,2.5-5.57-.7-10.2-1.2-12.18-1.2-6.86,0-22.51,2-33.28,2S7.68,412.35,7.68,412.35,32.3,431,42.92,430.68s31.52-1.25,34.33-.32C79,431,86.61,432,92.76,433c7.76,10.79,14.43,5.67,14.43,5.67s41.72,2.19,52.7,9.51c0,0-3.66,13.91-25.62,16.11s-24.89,2.19-35.87,2.19S74.25,476,74.25,476s14.64-8.05,38.06-3.66,45.39-3.66,47.58-5.12,18.3-5.86,22.7-5.86,52,30.75,55.63,35.87,24.89,35.14,28.55,60.76,2.93,54.9,2.93,64.42-1.47,19.76,6.58,32.94,7,28.61,4.78,38.86,1.25,33.07-9.73,38.92-.22,37.88,3.25,44.33c6.82,12.69-12.94,41.13-12.94,41.13Z" fill="#311634" data-color-group="0"/></svg>