<svg version="1.1" id="Layer_1" xmlns="http://www.w3.org/2000/svg" xmlns:xlink="http://www.w3.org/1999/xlink" x="0px" y="0px" width="100%" height="100%" viewBox="0 0 204.471 62.613" style="enable-background:new 0 0 204.471 62.613;" xml:space="preserve" preserveAspectRatio="none"><g><path style=";" d="M19.653,48.603c-3.782,0-7.439-1.612-9.361-4.278h-0.124v18.289H0V16.86h9.671v3.782h0.186 c1.86-2.48,5.332-4.65,9.857-4.65c8.99,0,14.631,7.563,14.631,16.181S28.952,48.603,19.653,48.603z M17.235,24.3 c-4.587,0-7.439,4.03-7.439,7.936c0,4.03,2.852,7.936,7.439,7.936c4.836,0,7.254-3.968,7.254-7.998 C24.489,28.206,22.071,24.3,17.235,24.3z" fill="#555555" data-color-group="0"/><path style=";" d="M69.398,34.436l-22.363,0.906c0.448,3.395,3.953,5.672,7.607,5.524 c3.221-0.131,5.396-1.584,6.684-3.497l7.242,4.174c-2.741,4.33-7.477,6.88-13.734,7.134c-9.292,0.376-17.211-5.198-17.633-15.604 c-0.409-10.097,6.639-16.836,15.993-17.215c9.106-0.369,15.74,5.629,16.167,16.16C69.395,32.823,69.43,33.69,69.398,34.436z M59.85,28.494c-0.131-3.221-2.283-5.802-6.309-5.639c-3.903,0.158-6.641,2.999-6.761,6.168L59.85,28.494z" fill="#555555" data-color-group="0"/><path style=";" d="M84.721,24.486v11.779c0,2.852,0.93,4.34,3.844,4.34c0.992,0,2.231-0.186,2.976-0.496l0.124,7.439 c-1.364,0.496-3.72,0.93-5.89,0.93c-8.246,0-10.974-4.402-10.974-10.974V24.486h-4.959V16.86h4.897V8.739h9.981v8.122h7.254v7.625 H84.721z" fill="#555555" data-color-group="0"/><path style=";" d="M116.464,48.603c-4.092,0-8.122-1.798-10.105-4.898h-0.124v4.03h-9.361V0.865h10.167v19.281h0.124 c1.736-2.046,4.897-4.154,9.423-4.154c8.989,0,14.569,7.563,14.569,16.181S125.763,48.603,116.464,48.603z M114.046,24.3 c-4.587,0-7.439,4.03-7.439,7.936c0,4.03,2.852,7.936,7.439,7.936c4.836,0,7.316-3.968,7.316-7.998 C121.362,28.206,118.882,24.3,114.046,24.3z" fill="#f87832" data-color-group="1"/><path style=";" d="M151.168,48.727c-9.3,0-17.111-6.448-17.111-16.553s7.812-16.305,17.111-16.305 c9.361,0,17.173,6.2,17.173,16.305S160.53,48.727,151.168,48.727z M151.168,24.3c-4.774,0-7.254,3.906-7.254,7.874 s2.542,7.998,7.315,7.998s7.315-4.03,7.315-7.998S155.942,24.3,151.168,24.3z" fill="#f87832" data-color-group="1"/><path style=";" d="M192.506,47.734l-6.634-9.485l-6.819,9.485h-11.779l12.337-16.181L168.452,16.86h11.841l5.766,8.245 l5.828-8.245h11.469l-11.097,14.693l12.213,16.181H192.506z" fill="#f87832" data-color-group="1"/><g><path style=";" d="M135.152,20.41c1.11-0.805,1.784-2.052,1.898-3.513c0.108-1.39-0.311-2.814-1.18-4.011 c-0.869-1.196-2.094-2.035-3.449-2.363c-1.423-0.344-2.818-0.09-3.926,0.715c-2.23,1.618-2.551,4.992-0.716,7.523 c1.464,2.014,3.86,2.893,5.901,2.348C134.201,20.971,134.699,20.74,135.152,20.41z" fill="#f87832" data-color-group="1"/><path style=";" d="M142.865,14.177c3.106-0.828,4.865-4.381,3.922-7.92c-0.944-3.54-4.239-5.745-7.345-4.917 c-3.106,0.828-4.865,4.382-3.921,7.921C136.465,12.8,139.76,15.005,142.865,14.177z" fill="#f87832" data-color-group="1"/><path style=";" d="M153.014,12.159L153.014,12.159c0.52,0.031,1.028-0.023,1.513-0.153 c2.265-0.604,4.033-2.841,4.2-5.6c0.096-1.588-0.347-3.122-1.248-4.318c-0.943-1.253-2.268-1.991-3.731-2.08 c-1.464-0.088-2.868,0.486-3.954,1.616c-1.038,1.08-1.662,2.549-1.758,4.137C147.834,9.111,150.067,11.981,153.014,12.159z" fill="#f87832" data-color-group="1"/><path style=";" d="M165.677,6.247l-0.001-0.001c-2.564-1.011-5.584,0.529-6.734,3.434 c-1.147,2.906,0.004,6.094,2.565,7.107c0.934,0.37,1.929,0.4,2.873,0.149c1.644-0.438,3.131-1.734,3.863-3.582 C169.389,10.449,168.238,7.26,165.677,6.247z" fill="#f87832" data-color-group="1"/></g></g></svg>